# xmcd
#
# Track frame offsets: 
#        150
#        15978
#        31475
#        47389
#        66404
#        80181
#        88529
#        105668
#        119376
#        132494
#
# Disc length: 1989 seconds
#
# Revision: 0
# Processed by: cddbd v1.5.2PL0 Copyright (c) Steve Scherf et al.
# Submitted via: ExactAudioCopy v1.3
#
DISCID=8007c30a
DTITLE=Iron Mike Norton - Bloody Knuckles
DYEAR=2013
DGENRE=Blues
TTITLE0=War Horse
TTITLE1=Killer Bee
TTITLE2=Jess B. Frens
TTITLE3=Roses And Rost
TTITLE4=Strawberry Crush
TTITLE5=Black Tooth Grin
TTITLE6=49 Dogs Years
TTITLE7=Get Close
TTITLE8=El Legarto
TTITLE9=Calhoun County
EXTD=
EXTT0=
EXTT1=
EXTT2=
EXTT3=
EXTT4=
EXTT5=
EXTT6=
EXTT7=
EXTT8=
EXTT9=
PLAYORDER=
